<svg width="55" height="83" viewBox="0 0 55 83" fill="none" xmlns="http://www.w3.org/2000/svg">
<path d="M50.6179 49.8125L53.3495 52.5875C54.5062 53.7625 54.5062 55.6625 53.3495 56.825L29.4415 81.125C28.2849 82.3 26.4146 82.3 25.2702 81.125L1.3499 56.825C0.193262 55.65 0.193262 53.75 1.3499 52.5875L4.08154 49.8125C5.25049 48.625 7.15772 48.65 8.30205 49.8625L22.4278 64.925V3C22.4278 1.3375 23.7444 0 25.381 0H29.3185C30.955 0 32.2716 1.3375 32.2716 3V64.925L46.3974 49.8625C47.5417 48.6375 49.4489 48.6125 50.6179 49.8125Z" fill="#4213FF"/>
</svg>
