<svg width="23" height="23" viewBox="0 0 23 23" fill="none" xmlns="http://www.w3.org/2000/svg">
<g clip-path="url(#clip0_72_191)">
<path d="M7.7877 17.8032C7.7877 17.8891 7.68887 17.9579 7.56426 17.9579C7.42246 17.9708 7.32363 17.902 7.32363 17.8032C7.32363 17.7173 7.42246 17.6485 7.54707 17.6485C7.67598 17.6356 7.7877 17.7044 7.7877 17.8032ZM6.45137 17.6098C6.42129 17.6958 6.50723 17.7946 6.63613 17.8204C6.74785 17.8634 6.87676 17.8204 6.90254 17.7344C6.92832 17.6485 6.84668 17.5497 6.71777 17.511C6.60605 17.4809 6.48145 17.5239 6.45137 17.6098ZM8.35059 17.5368C8.22598 17.5669 8.14004 17.6485 8.15293 17.7473C8.16582 17.8333 8.27754 17.8891 8.40645 17.8591C8.53105 17.829 8.61699 17.7473 8.6041 17.6614C8.59121 17.5798 8.4752 17.5239 8.35059 17.5368ZM11.1779 1.07117C5.21816 1.07117 0.65918 5.59578 0.65918 11.5555C0.65918 16.3208 3.6584 20.3985 7.94238 21.8337C8.49238 21.9325 8.68574 21.593 8.68574 21.3137C8.68574 21.0473 8.67285 19.5778 8.67285 18.6755C8.67285 18.6755 5.66504 19.32 5.0334 17.395C5.0334 17.395 4.54355 16.1446 3.83887 15.8223C3.83887 15.8223 2.85488 15.1477 3.90762 15.1606C3.90762 15.1606 4.97754 15.2466 5.56621 16.2692C6.50723 17.9278 8.08418 17.4509 8.69863 17.1673C8.79746 16.4798 9.07676 16.0028 9.38613 15.7192C6.98418 15.4528 4.56074 15.1048 4.56074 10.9712C4.56074 9.78953 4.8873 9.19656 5.5748 8.44031C5.46309 8.16101 5.09785 7.00945 5.68652 5.52273C6.58457 5.24343 8.65137 6.68289 8.65137 6.68289C9.51074 6.44226 10.4346 6.31765 11.3498 6.31765C12.265 6.31765 13.1889 6.44226 14.0482 6.68289C14.0482 6.68289 16.115 5.23914 17.0131 5.52273C17.6018 7.01375 17.2365 8.16101 17.1248 8.44031C17.8123 9.20085 18.2334 9.79382 18.2334 10.9712C18.2334 15.1177 15.7025 15.4485 13.3006 15.7192C13.6959 16.0587 14.0311 16.7032 14.0311 17.713C14.0311 19.161 14.0182 20.9528 14.0182 21.3052C14.0182 21.5844 14.2158 21.9239 14.7615 21.8251C19.0584 20.3985 21.9717 16.3208 21.9717 11.5555C21.9717 5.59578 17.1377 1.07117 11.1779 1.07117ZM4.83574 15.8911C4.77988 15.9341 4.79277 16.0329 4.86582 16.1145C4.93457 16.1833 5.0334 16.2134 5.08926 16.1575C5.14512 16.1145 5.13223 16.0157 5.05918 15.9341C4.99043 15.8653 4.8916 15.8352 4.83574 15.8911ZM4.37168 15.543C4.3416 15.5989 4.38457 15.6677 4.47051 15.7106C4.53926 15.7536 4.6252 15.7407 4.65527 15.6805C4.68535 15.6247 4.64238 15.5559 4.55645 15.513C4.47051 15.4872 4.40176 15.5001 4.37168 15.543ZM5.76387 17.0727C5.69512 17.1286 5.7209 17.2575 5.81973 17.3391C5.91855 17.438 6.04316 17.4509 6.09902 17.3821C6.15488 17.3262 6.1291 17.1973 6.04316 17.1157C5.94863 17.0169 5.81973 17.004 5.76387 17.0727ZM5.27402 16.4411C5.20527 16.4841 5.20527 16.5958 5.27402 16.6946C5.34277 16.7934 5.45879 16.8364 5.51465 16.7934C5.5834 16.7376 5.5834 16.6259 5.51465 16.527C5.45449 16.4282 5.34277 16.3852 5.27402 16.4411Z" fill="#4213FF"/>
</g>
<defs>
<clipPath id="clip0_72_191">
<rect width="22" height="22" fill="white" transform="translate(0.31543 0.727417)"/>
</clipPath>
</defs>
</svg>
