<svg width="26" height="26" viewBox="0 0 26 26" fill="none" xmlns="http://www.w3.org/2000/svg">
<path d="M13.0095 7.84595C9.90405 7.84595 7.39917 10.3508 7.39917 13.4563C7.39917 16.5618 9.90405 19.0666 13.0095 19.0666C16.115 19.0666 18.6199 16.5618 18.6199 13.4563C18.6199 10.3508 16.115 7.84595 13.0095 7.84595ZM13.0095 17.1038C11.0027 17.1038 9.36206 15.468 9.36206 13.4563C9.36206 11.4446 10.9978 9.80884 13.0095 9.80884C15.0212 9.80884 16.657 11.4446 16.657 13.4563C16.657 15.468 15.0164 17.1038 13.0095 17.1038ZM20.158 7.61646C20.158 8.34399 19.572 8.92505 18.8494 8.92505C18.1218 8.92505 17.5408 8.33911 17.5408 7.61646C17.5408 6.8938 18.1267 6.30786 18.8494 6.30786C19.572 6.30786 20.158 6.8938 20.158 7.61646ZM23.8738 8.94458C23.7908 7.19165 23.3904 5.63892 22.1062 4.35962C20.8269 3.08032 19.2742 2.67993 17.5212 2.59204C15.7146 2.4895 10.2996 2.4895 8.49292 2.59204C6.74487 2.67505 5.19214 3.07544 3.90796 4.35474C2.62378 5.63403 2.22827 7.18677 2.14038 8.9397C2.03784 10.7463 2.03784 16.1614 2.14038 17.968C2.22339 19.7209 2.62378 21.2737 3.90796 22.553C5.19214 23.8323 6.73999 24.2327 8.49292 24.3206C10.2996 24.4231 15.7146 24.4231 17.5212 24.3206C19.2742 24.2375 20.8269 23.8372 22.1062 22.553C23.3855 21.2737 23.7859 19.7209 23.8738 17.968C23.9763 16.1614 23.9763 10.7512 23.8738 8.94458ZM21.5398 19.9065C21.1589 20.8635 20.4216 21.6008 19.4597 21.9866C18.0193 22.5579 14.6013 22.426 13.0095 22.426C11.4177 22.426 7.99487 22.553 6.55933 21.9866C5.60229 21.6057 4.86499 20.8684 4.47925 19.9065C3.90796 18.4661 4.0398 15.0481 4.0398 13.4563C4.0398 11.8645 3.91284 8.44165 4.47925 7.0061C4.86011 6.04907 5.59741 5.31177 6.55933 4.92603C7.99976 4.35474 11.4177 4.48657 13.0095 4.48657C14.6013 4.48657 18.0242 4.35962 19.4597 4.92603C20.4167 5.30688 21.1541 6.04419 21.5398 7.0061C22.1111 8.44653 21.9792 11.8645 21.9792 13.4563C21.9792 15.0481 22.1111 18.4709 21.5398 19.9065Z" fill="#4213FF"/>
</svg>
