<svg width="24" height="23" viewBox="0 0 24 23" fill="none" xmlns="http://www.w3.org/2000/svg">
<g clip-path="url(#clip0_72_195)">
<path d="M6.2577 19.9775H2.08535V7.12552H6.2577V19.9775ZM4.16928 5.3724C2.8351 5.3724 1.75293 4.31537 1.75293 3.03919C1.75293 2.4262 2.00751 1.83832 2.46066 1.40487C2.91381 0.971415 3.52842 0.727905 4.16928 0.727905C4.81013 0.727905 5.42474 0.971415 5.87789 1.40487C6.33105 1.83832 6.58563 2.4262 6.58563 3.03919C6.58563 4.31537 5.50301 5.3724 4.16928 5.3724ZM21.8734 19.9775H17.7101V13.7212C17.7101 12.2302 17.6786 10.3181 15.5408 10.3181C13.3715 10.3181 13.0391 11.938 13.0391 13.6138V19.9775H8.87125V7.12552H12.8729V8.87865H12.9313C13.4883 7.86888 14.849 6.80326 16.879 6.80326C21.1017 6.80326 21.8779 9.46302 21.8779 12.9177V19.9775H21.8734Z" fill="#4213FF"/>
</g>
<defs>
<clipPath id="clip0_72_195">
<rect width="23" height="22" fill="white" transform="translate(0.31543 0.727417)"/>
</clipPath>
</defs>
</svg>
