<svg width="154" height="18" viewBox="0 0 154 18" fill="none" xmlns="http://www.w3.org/2000/svg">
<path fill-rule="evenodd" clip-rule="evenodd" d="M35.9361 2.92297H21.8057V17.0534H35.9361V2.92297ZM35.936 8.00992V2.92298H30.8491V8.00992H35.936Z" fill="#4213FF"/>
<path fill-rule="evenodd" clip-rule="evenodd" d="M3.56388 7.99862L8.79166 17.0534L17.1009 2.66138L0.482422 2.66138L0.483739 2.66366L6.64402 2.66366L3.56388 7.99862Z" fill="#4213FF"/>
<path d="M57.6675 13.6614V10.2594L54.9235 4.50538H56.6595L57.6535 6.84338C57.7842 7.18871 57.9148 7.52471 58.0455 7.85138C58.1762 8.16871 58.3162 8.50471 58.4655 8.85938H58.5215C58.6708 8.50471 58.8155 8.16871 58.9555 7.85138C59.0955 7.52471 59.2308 7.18871 59.3615 6.84338L60.3555 4.50538H62.0495L59.2915 10.2594V13.6614H57.6675ZM63.0152 13.6614V6.78738H64.6252V13.6614H63.0152ZM63.8272 5.58338C63.5378 5.58338 63.3045 5.49938 63.1272 5.33138C62.9498 5.16338 62.8612 4.93938 62.8612 4.65938C62.8612 4.38871 62.9498 4.16938 63.1272 4.00138C63.3045 3.83338 63.5378 3.74938 63.8272 3.74938C64.1165 3.74938 64.3498 3.83338 64.5272 4.00138C64.7045 4.16938 64.7932 4.38871 64.7932 4.65938C64.7932 4.93938 64.7045 5.16338 64.5272 5.33138C64.3498 5.49938 64.1165 5.58338 63.8272 5.58338ZM66.6792 13.6614V6.78738H68.0092L68.1212 8.00538H68.1772C68.4199 7.55738 68.7139 7.21671 69.0592 6.98338C69.4046 6.74071 69.7592 6.61938 70.1232 6.61938C70.4499 6.61938 70.7112 6.66604 70.9072 6.75938L70.6272 8.15938C70.5059 8.12204 70.3939 8.09404 70.2912 8.07538C70.1886 8.05671 70.0626 8.04738 69.9132 8.04738C69.6426 8.04738 69.3579 8.15471 69.0592 8.36938C68.7606 8.57471 68.5039 8.93871 68.2892 9.46138V13.6614H66.6792ZM73.1987 13.8294C72.6014 13.8294 72.1114 13.6427 71.7287 13.2694C71.3554 12.896 71.1687 12.4107 71.1687 11.8134C71.1687 11.076 71.4907 10.5067 72.1347 10.1054C72.7787 9.69471 73.8054 9.41471 75.2147 9.26538C75.2054 8.90138 75.1074 8.58871 74.9207 8.32738C74.7434 8.05671 74.4214 7.92138 73.9547 7.92138C73.6187 7.92138 73.2874 7.98671 72.9607 8.11738C72.6434 8.24804 72.3307 8.40671 72.0227 8.59338L71.4347 7.51538C71.8174 7.27271 72.2467 7.06271 72.7227 6.88538C73.2081 6.70804 73.7214 6.61938 74.2627 6.61938C75.1214 6.61938 75.7607 6.87604 76.1807 7.38938C76.6101 7.89338 76.8247 8.62604 76.8247 9.58738V13.6614H75.4947L75.3827 12.9054H75.3267C75.0187 13.1667 74.6874 13.386 74.3327 13.5634C73.9874 13.7407 73.6094 13.8294 73.1987 13.8294ZM73.7167 12.5694C73.9967 12.5694 74.2487 12.504 74.4727 12.3734C74.7061 12.2334 74.9534 12.0467 75.2147 11.8134V10.2734C74.2814 10.3947 73.6327 10.5767 73.2687 10.8194C72.9047 11.0527 72.7227 11.342 72.7227 11.6874C72.7227 11.9954 72.8161 12.2194 73.0027 12.3594C73.1894 12.4994 73.4274 12.5694 73.7167 12.5694ZM81.6942 13.6614V4.50538H83.3182V12.2894H87.1262V13.6614H81.6942ZM88.5816 13.6614V6.78738H90.1916V13.6614H88.5816ZM89.3936 5.58338C89.1042 5.58338 88.8709 5.49938 88.6936 5.33138C88.5162 5.16338 88.4276 4.93938 88.4276 4.65938C88.4276 4.38871 88.5162 4.16938 88.6936 4.00138C88.8709 3.83338 89.1042 3.74938 89.3936 3.74938C89.6829 3.74938 89.9162 3.83338 90.0936 4.00138C90.2709 4.16938 90.3596 4.38871 90.3596 4.65938C90.3596 4.93938 90.2709 5.16338 90.0936 5.33138C89.9162 5.49938 89.6829 5.58338 89.3936 5.58338ZM92.2456 13.6614V6.78738H93.5756L93.6876 7.71138H93.7436C94.0516 7.41271 94.3876 7.15604 94.7516 6.94138C95.1156 6.72671 95.531 6.61938 95.9976 6.61938C96.735 6.61938 97.2716 6.85738 97.6076 7.33338C97.9436 7.80938 98.1116 8.48138 98.1116 9.34938V13.6614H96.5016V9.55938C96.5016 8.99004 96.4176 8.58871 96.2496 8.35538C96.0816 8.12204 95.8063 8.00538 95.4236 8.00538C95.125 8.00538 94.859 8.08004 94.6256 8.22938C94.4016 8.36938 94.145 8.57938 93.8556 8.85938V13.6614H92.2456ZM101.746 13.8294C101.148 13.8294 100.658 13.6427 100.276 13.2694C99.9023 12.896 99.7156 12.4107 99.7156 11.8134C99.7156 11.076 100.038 10.5067 100.682 10.1054C101.326 9.69471 102.352 9.41471 103.762 9.26538C103.752 8.90138 103.654 8.58871 103.468 8.32738C103.29 8.05671 102.968 7.92138 102.502 7.92138C102.166 7.92138 101.834 7.98671 101.508 8.11738C101.19 8.24804 100.878 8.40671 100.57 8.59338L99.9816 7.51538C100.364 7.27271 100.794 7.06271 101.27 6.88538C101.755 6.70804 102.268 6.61938 102.81 6.61938C103.668 6.61938 104.308 6.87604 104.728 7.38938C105.157 7.89338 105.372 8.62604 105.372 9.58738V13.6614H104.042L103.93 12.9054H103.874C103.566 13.1667 103.234 13.386 102.88 13.5634C102.534 13.7407 102.156 13.8294 101.746 13.8294ZM102.264 12.5694C102.544 12.5694 102.796 12.504 103.02 12.3734C103.253 12.2334 103.5 12.0467 103.762 11.8134V10.2734C102.828 10.3947 102.18 10.5767 101.816 10.8194C101.452 11.0527 101.27 11.342 101.27 11.6874C101.27 11.9954 101.363 12.2194 101.55 12.3594C101.736 12.4994 101.974 12.5694 102.264 12.5694ZM107.298 13.6614V6.78738H108.628L108.74 8.00538H108.796C109.039 7.55738 109.333 7.21671 109.678 6.98338C110.024 6.74071 110.378 6.61938 110.742 6.61938C111.069 6.61938 111.33 6.66604 111.526 6.75938L111.246 8.15938C111.125 8.12204 111.013 8.09404 110.91 8.07538C110.808 8.05671 110.682 8.04738 110.532 8.04738C110.262 8.04738 109.977 8.15471 109.678 8.36938C109.38 8.57471 109.123 8.93871 108.908 9.46138V13.6614H107.298ZM115.324 13.8294C114.69 13.8294 114.116 13.6894 113.602 13.4094C113.089 13.12 112.683 12.7094 112.384 12.1774C112.086 11.636 111.936 10.9874 111.936 10.2314C111.936 9.48471 112.086 8.84071 112.384 8.29938C112.692 7.75804 113.089 7.34271 113.574 7.05338C114.06 6.76404 114.568 6.61938 115.1 6.61938C115.726 6.61938 116.248 6.75938 116.668 7.03938C117.088 7.31004 117.406 7.69271 117.62 8.18738C117.835 8.67271 117.942 9.23738 117.942 9.88138C117.942 10.2174 117.919 10.4787 117.872 10.6654H113.504C113.579 11.272 113.798 11.7434 114.162 12.0794C114.526 12.4154 114.984 12.5834 115.534 12.5834C115.833 12.5834 116.108 12.5414 116.36 12.4574C116.622 12.364 116.878 12.238 117.13 12.0794L117.676 13.0874C117.35 13.302 116.986 13.4794 116.584 13.6194C116.183 13.7594 115.763 13.8294 115.324 13.8294ZM113.49 9.57338H116.542C116.542 9.04138 116.426 8.62604 116.192 8.32738C115.959 8.01938 115.609 7.86538 115.142 7.86538C114.741 7.86538 114.382 8.01471 114.064 8.31338C113.756 8.60271 113.565 9.02271 113.49 9.57338ZM121.398 13.8294C120.931 13.8294 120.465 13.7407 119.998 13.5634C119.531 13.3767 119.13 13.148 118.794 12.8774L119.55 11.8414C119.858 12.0747 120.166 12.2614 120.474 12.4014C120.782 12.5414 121.109 12.6114 121.454 12.6114C121.827 12.6114 122.103 12.532 122.28 12.3734C122.457 12.2147 122.546 12.0187 122.546 11.7854C122.546 11.5894 122.471 11.4307 122.322 11.3094C122.182 11.1787 122 11.0667 121.776 10.9734C121.552 10.8707 121.319 10.7727 121.076 10.6794C120.777 10.5674 120.479 10.432 120.18 10.2734C119.891 10.1054 119.653 9.89538 119.466 9.64338C119.279 9.38204 119.186 9.06004 119.186 8.67738C119.186 8.07071 119.41 7.57604 119.858 7.19338C120.306 6.81071 120.913 6.61938 121.678 6.61938C122.163 6.61938 122.597 6.70338 122.98 6.87138C123.363 7.03938 123.694 7.23071 123.974 7.44538L123.232 8.42538C122.989 8.24804 122.742 8.10804 122.49 8.00538C122.247 7.89338 121.991 7.83738 121.72 7.83738C121.375 7.83738 121.118 7.91204 120.95 8.06138C120.782 8.20138 120.698 8.37871 120.698 8.59338C120.698 8.86404 120.838 9.06938 121.118 9.20938C121.398 9.34938 121.725 9.48471 122.098 9.61538C122.415 9.72738 122.723 9.86738 123.022 10.0354C123.321 10.194 123.568 10.404 123.764 10.6654C123.969 10.9267 124.072 11.272 124.072 11.7014C124.072 12.2894 123.843 12.7934 123.386 13.2134C122.929 13.624 122.266 13.8294 121.398 13.8294Z" fill="#4213FF"/>
</svg>
