<svg width="23" height="23" viewBox="0 0 23 23" fill="none" xmlns="http://www.w3.org/2000/svg">
<g clip-path="url(#clip0_72_193)">
<path d="M20.054 7.24648C20.0679 7.4419 20.0679 7.63737 20.0679 7.83279C20.0679 13.7934 15.5312 20.6615 7.23928 20.6615C4.68471 20.6615 2.31163 19.9216 0.31543 18.6374C0.678387 18.6792 1.02734 18.6932 1.40426 18.6932C3.51209 18.6932 5.45247 17.9813 7.00197 16.7668C5.01973 16.7249 3.35856 15.4267 2.78622 13.6399C3.06543 13.6817 3.3446 13.7097 3.63777 13.7097C4.04258 13.7097 4.44743 13.6538 4.82431 13.5561C2.75833 13.1373 1.20879 11.3226 1.20879 9.131V9.07519C1.80902 9.41021 2.50705 9.6196 3.24684 9.64749C2.03237 8.83783 1.23672 7.45587 1.23672 5.89241C1.23672 5.05486 1.46003 4.28709 1.85092 3.61704C4.07047 6.35307 7.40678 8.13984 11.1479 8.33531C11.0781 8.00028 11.0362 7.65133 11.0362 7.30234C11.0362 4.81754 13.0463 2.79346 15.5451 2.79346C16.8433 2.79346 18.0158 3.33787 18.8395 4.21731C19.8585 4.02189 20.8356 3.64497 21.7011 3.12848C21.3661 4.17546 20.6542 5.0549 19.7189 5.61324C20.6263 5.51557 21.5057 5.26425 22.3153 4.9153C21.7012 5.80866 20.9334 6.60431 20.054 7.24648Z" fill="#4213FF"/>
</g>
<defs>
<clipPath id="clip0_72_193">
<rect width="22" height="22" fill="white" transform="translate(0.31543 0.727417)"/>
</clipPath>
</defs>
</svg>
