<svg width="26" height="26" viewBox="0 0 26 26" fill="none" xmlns="http://www.w3.org/2000/svg">
<g clip-path="url(#clip0_116_38)">
<path d="M24.0068 7.71544C23.7341 6.68896 22.9309 5.88054 21.9111 5.60619C20.0626 5.10767 12.6502 5.10767 12.6502 5.10767C12.6502 5.10767 5.23788 5.10767 3.38931 5.60619C2.36948 5.88058 1.56627 6.68896 1.29365 7.71544C0.79834 9.57598 0.79834 13.4578 0.79834 13.4578C0.79834 13.4578 0.79834 17.3397 1.29365 19.2002C1.56627 20.2267 2.36948 21.0015 3.38931 21.2758C5.23788 21.7743 12.6502 21.7743 12.6502 21.7743C12.6502 21.7743 20.0625 21.7743 21.9111 21.2758C22.9309 21.0015 23.7341 20.2267 24.0068 19.2002C24.5021 17.3397 24.5021 13.4578 24.5021 13.4578C24.5021 13.4578 24.5021 9.57598 24.0068 7.71544ZM10.2259 16.9823V9.9334L16.4212 13.4579L10.2259 16.9823Z" fill="#4213FF"/>
</g>
<defs>
<clipPath id="clip0_116_38">
<rect width="25" height="25" fill="white" transform="translate(0.150391 0.94104)"/>
</clipPath>
</defs>
</svg>
